999
"DXF R12 Output" (www.mydxf.blogspot.com)
 0 
SECTION
 2 
HEADER
 9 
$ACADVER
 1 
AC1009
 9 
$EXTMIN
 10 
 0 
 20 
 0 
 9 
$EXTMAX
 10 
 8.5 
 20 
 11 
 0 
ENDSEC
 0 
SECTION
 2 
ENTITIES
0
LINE
8
Layer 1
10
0.000000
20
35.706500
11
122.925000
21
35.706500
0
LINE
8
Layer 1
10
122.925000
20
35.706500
11
122.925000
21
142.825000
0
LINE
8
Layer 1
10
122.925000
20
142.825000
11
0.000000
21
142.825000
0
LINE
8
Layer 1
10
0.000000
20
142.825000
11
0.000000
21
35.706500
0
LINE
8
iris-switch-plate-1.5mm-thick
10
100.867000
20
142.744000
11
100.248616
21
142.662967
0
LINE
8
iris-switch-plate-1.5mm-thick
10
100.248616
20
142.662967
11
99.667270
21
142.422549
0
LINE
8
iris-switch-plate-1.5mm-thick
10
99.667270
20
142.422549
11
97.588140
21
141.222539
0
LINE
8
iris-switch-plate-1.5mm-thick
10
97.588140
20
141.222539
11
93.000885
21
138.790374
0
LINE
8
iris-switch-plate-1.5mm-thick
10
93.000885
20
138.790374
11
88.598627
21
136.856149
0
LINE
8
iris-switch-plate-1.5mm-thick
10
88.598627
20
136.856149
11
84.359476
21
135.349239
0
LINE
8
iris-switch-plate-1.5mm-thick
10
84.359476
20
135.349239
11
80.261540
21
134.199020
0
LINE
8
iris-switch-plate-1.5mm-thick
10
80.261540
20
134.199020
11
76.282929
21
133.334869
0
LINE
8
iris-switch-plate-1.5mm-thick
10
76.282929
20
133.334869
11
72.401753
21
132.686161
0
LINE
8
iris-switch-plate-1.5mm-thick
10
72.401753
20
132.686161
11
64.844140
21
131.752579
0
LINE
8
iris-switch-plate-1.5mm-thick
10
64.844140
20
131.752579
11
56.937130
21
130.765084
0
LINE
8
iris-switch-plate-1.5mm-thick
10
56.937130
20
130.765084
11
54.896380
21
130.455204
0
LINE
8
iris-switch-plate-1.5mm-thick
10
54.896380
20
130.455204
11
54.082868
21
130.176157
0
LINE
8
iris-switch-plate-1.5mm-thick
10
54.082868
20
130.176157
11
53.436729
21
129.646921
0
LINE
8
iris-switch-plate-1.5mm-thick
10
53.436729
20
129.646921
11
53.010510
21
128.928666
0
LINE
8
iris-switch-plate-1.5mm-thick
10
53.010510
20
128.928666
11
52.856760
21
128.082564
0
LINE
8
iris-switch-plate-1.5mm-thick
10
52.856760
20
128.082564
11
52.856700
21
117.978000
0
LINE
8
iris-switch-plate-1.5mm-thick
10
52.856700
20
117.978000
11
52.668207
21
117.044295
0
LINE
8
iris-switch-plate-1.5mm-thick
10
52.668207
20
117.044295
11
52.154145
21
116.281774
0
LINE
8
iris-switch-plate-1.5mm-thick
10
52.154145
20
116.281774
11
51.391638
21
115.767644
0
LINE
8
iris-switch-plate-1.5mm-thick
10
51.391638
20
115.767644
11
50.457810
21
115.579110
0
LINE
8
iris-switch-plate-1.5mm-thick
10
50.457810
20
115.579110
11
2.481210
21
115.579000
0
LINE
8
iris-switch-plate-1.5mm-thick
10
2.481210
20
115.579000
11
1.547092
21
115.390409
0
LINE
8
iris-switch-plate-1.5mm-thick
10
1.547092
20
115.390409
11
0.784209
21
114.876090
0
LINE
8
iris-switch-plate-1.5mm-thick
10
0.784209
20
114.876090
11
0.269821
21
114.113221
0
LINE
8
iris-switch-plate-1.5mm-thick
10
0.269821
20
114.113221
11
0.081190
21
113.178980
0
LINE
8
iris-switch-plate-1.5mm-thick
10
0.081190
20
113.178980
11
0.081195
21
47.979200
0
LINE
8
iris-switch-plate-1.5mm-thick
10
0.081195
20
47.979200
11
0.211384
21
47.198967
0
LINE
8
iris-switch-plate-1.5mm-thick
10
0.211384
20
47.198967
11
0.576390
21
46.519300
0
LINE
8
iris-switch-plate-1.5mm-thick
10
0.576390
20
46.519300
11
1.137876
21
45.990180
0
LINE
8
iris-switch-plate-1.5mm-thick
10
1.137876
20
45.990180
11
1.857505
21
45.661590
0
LINE
8
iris-switch-plate-1.5mm-thick
10
1.857505
20
45.661590
11
3.633815
21
45.183506
0
LINE
8
iris-switch-plate-1.5mm-thick
10
3.633815
20
45.183506
11
12.240696
21
42.964580
0
LINE
8
iris-switch-plate-1.5mm-thick
10
12.240696
20
42.964580
11
20.450576
21
41.048186
0
LINE
8
iris-switch-plate-1.5mm-thick
10
20.450576
20
41.048186
11
28.276267
21
39.432266
0
LINE
8
iris-switch-plate-1.5mm-thick
10
28.276267
20
39.432266
11
35.730578
21
38.114763
0
LINE
8
iris-switch-plate-1.5mm-thick
10
35.730578
20
38.114763
11
42.826318
21
37.093620
0
LINE
8
iris-switch-plate-1.5mm-thick
10
42.826318
20
37.093620
11
49.576298
21
36.366780
0
LINE
8
iris-switch-plate-1.5mm-thick
10
49.576298
20
36.366780
11
55.993327
21
35.932184
0
LINE
8
iris-switch-plate-1.5mm-thick
10
55.993327
20
35.932184
11
62.090215
21
35.787776
0
LINE
8
iris-switch-plate-1.5mm-thick
10
62.090215
20
35.787776
11
67.493197
21
35.909284
0
LINE
8
iris-switch-plate-1.5mm-thick
10
67.493197
20
35.909284
11
72.640695
21
36.274962
0
LINE
8
iris-switch-plate-1.5mm-thick
10
72.640695
20
36.274962
11
77.540700
21
36.886543
0
LINE
8
iris-switch-plate-1.5mm-thick
10
77.540700
20
36.886543
11
82.201203
21
37.745761
0
LINE
8
iris-switch-plate-1.5mm-thick
10
82.201203
20
37.745761
11
86.630195
21
38.854348
0
LINE
8
iris-switch-plate-1.5mm-thick
10
86.630195
20
38.854348
11
90.835667
21
40.214038
0
LINE
8
iris-switch-plate-1.5mm-thick
10
90.835667
20
40.214038
11
94.825610
21
41.826563
0
LINE
8
iris-switch-plate-1.5mm-thick
10
94.825610
20
41.826563
11
98.608015
21
43.693656
0
LINE
8
iris-switch-plate-1.5mm-thick
10
98.608015
20
43.693656
11
99.864465
21
44.374658
0
LINE
8
iris-switch-plate-1.5mm-thick
10
99.864465
20
44.374658
11
100.387493
21
44.757431
0
LINE
8
iris-switch-plate-1.5mm-thick
10
100.387493
20
44.757431
11
100.783097
21
45.256672
0
LINE
8
iris-switch-plate-1.5mm-thick
10
100.783097
20
45.256672
11
101.033497
21
45.842380
0
LINE
8
iris-switch-plate-1.5mm-thick
10
101.033497
20
45.842380
11
101.120915
21
46.484548
0
LINE
8
iris-switch-plate-1.5mm-thick
10
101.120915
20
46.484548
11
101.121000
21
86.013700
0
LINE
8
iris-switch-plate-1.5mm-thick
10
101.121000
20
86.013700
11
101.390412
21
88.033961
0
LINE
8
iris-switch-plate-1.5mm-thick
10
101.390412
20
88.033961
11
102.209390
21
89.983640
0
LINE
8
iris-switch-plate-1.5mm-thick
10
102.209390
20
89.983640
11
103.594047
21
91.914952
0
LINE
8
iris-switch-plate-1.5mm-thick
10
103.594047
20
91.914952
11
105.560497
21
93.880106
0
LINE
8
iris-switch-plate-1.5mm-thick
10
105.560497
20
93.880106
11
108.124854
21
95.931316
0
LINE
8
iris-switch-plate-1.5mm-thick
10
108.124854
20
95.931316
11
111.303232
21
98.120794
0
LINE
8
iris-switch-plate-1.5mm-thick
10
111.303232
20
98.120794
11
119.566500
21
103.123400
0
LINE
8
iris-switch-plate-1.5mm-thick
10
119.566500
20
103.123400
11
121.643940
21
104.322840
0
LINE
8
iris-switch-plate-1.5mm-thick
10
121.643940
20
104.322840
11
122.358471
21
104.953095
0
LINE
8
iris-switch-plate-1.5mm-thick
10
122.358471
20
104.953095
11
122.761960
21
105.779671
0
LINE
8
iris-switch-plate-1.5mm-thick
10
122.761960
20
105.779671
11
122.826149
21
106.697265
0
LINE
8
iris-switch-plate-1.5mm-thick
10
122.826149
20
106.697265
11
122.522779
21
107.600570
0
LINE
8
iris-switch-plate-1.5mm-thick
10
122.522779
20
107.600570
11
102.946000
21
141.543000
0
LINE
8
iris-switch-plate-1.5mm-thick
10
102.946000
20
141.543000
11
102.328781
21
142.247391
0
LINE
8
iris-switch-plate-1.5mm-thick
10
102.328781
20
142.247391
11
101.488890
21
142.662010
0
LINE
8
iris-switch-plate-1.5mm-thick
10
101.488890
20
142.662010
11
100.867155
21
142.743854
0
LINE
8
iris-switch-plate-1.5mm-thick
10
100.867155
20
142.743854
11
100.867000
21
142.744000
 0 
ENDSEC
 0 
EOF